<?xml version="1.0" encoding="UTF-8"?><svg id="Layer_1" data-name="Layer 1" xmlns="http://www.w3.org/2000/svg" xmlns:xlink="http://www.w3.org/1999/xlink" version="1.1" viewBox="0 0 682.9 535.7"><defs><style>.cls-1 {
        stroke: #000;
      }

      .cls-1, .cls-2, .cls-3, .cls-4, .cls-5, .cls-6, .cls-7, .cls-8, .cls-9, .cls-10, .cls-11, .cls-12, .cls-13, .cls-14, .cls-15, .cls-16, .cls-17, .cls-18, .cls-19, .cls-20, .cls-21, .cls-22, .cls-23 {
        stroke-miterlimit: 10;
      }

      .cls-1, .cls-24 {
        fill: #fff;
      }

      .cls-2 {
        stroke-width: .4px;
      }

      .cls-2, .cls-3, .cls-4, .cls-5, .cls-6, .cls-7, .cls-8, .cls-9, .cls-10, .cls-11, .cls-12, .cls-13, .cls-14, .cls-15, .cls-16, .cls-17, .cls-18, .cls-19, .cls-20, .cls-22 {
        stroke: #292423;
      }

      .cls-2, .cls-5, .cls-25 {
        fill: #bbb5b2;
      }

      .cls-3 {
        stroke-width: 2px;
      }

      .cls-3, .cls-26, .cls-27, .cls-10, .cls-11, .cls-12, .cls-13, .cls-15, .cls-16, .cls-17, .cls-18, .cls-19, .cls-20, .cls-22, .cls-23 {
        fill: none;
      }

      .cls-26, .cls-28, .cls-29, .cls-30, .cls-25, .cls-31, .cls-32, .cls-24 {
        stroke-width: 0px;
      }

      .cls-4 {
        fill: #bdb5af;
      }

      .cls-4, .cls-5, .cls-7, .cls-8, .cls-9, .cls-10, .cls-11, .cls-12, .cls-13, .cls-14, .cls-15, .cls-16, .cls-17, .cls-18, .cls-20, .cls-21, .cls-23 {
        stroke-width: .5px;
      }

      .cls-27 {
        stroke: #231f20;
        stroke-width: .3px;
      }

      .cls-6 {
        stroke-width: .4px;
      }

      .cls-6, .cls-7, .cls-33, .cls-29, .cls-34 {
        fill: #292423;
      }

      .cls-28 {
        fill: url(#e);
        opacity: .7;
      }

      .cls-28, .cls-33, .cls-34, .cls-35 {
        isolation: isolate;
      }

      .cls-33, .cls-34 {
        font-family: D-DIN, D-DIN;
        font-size: 18px;
      }

      .cls-8 {
        fill: #eee6e2;
      }

      .cls-9 {
        fill: #776c66;
      }

      .cls-10, .cls-11, .cls-12, .cls-13, .cls-16, .cls-17, .cls-18 {
        stroke-linecap: round;
      }

      .cls-30 {
        fill: #e0dfde;
      }

      .cls-11 {
        stroke-dasharray: 0 0 0 0 0 0 3.8 3.8;
      }

      .cls-12 {
        stroke-dasharray: 0 0 0 0 0 0 4.1 4.1;
      }

      .cls-13 {
        stroke-dasharray: 0 0 0 0 0 0 3.3 3.3;
      }

      .cls-14 {
        fill: #e4e2e0;
      }

      .cls-31 {
        fill: #ab846d;
      }

      .cls-32, .cls-36, .cls-21 {
        fill: #d5c2b6;
      }

      .cls-34 {
        letter-spacing: 0em;
      }

      .cls-15, .cls-17 {
        stroke-dasharray: 0 0 0 4;
      }

      .cls-16 {
        stroke-dasharray: 0 0 0 0 0 0 4.4 4.4;
      }

      .cls-18 {
        stroke-dasharray: 0 0 0 0 0 0 4 4;
      }

      .cls-19 {
        stroke-width: .4px;
      }

      .cls-36 {
        stroke-miterlimit: 10;
        stroke-width: .5px;
      }

      .cls-36, .cls-21, .cls-23 {
        stroke: #776c66;
      }

      .cls-22 {
        stroke-width: .2px;
      }</style><pattern id="e" x="0" y="0" width="72" height="72" patternTransform="translate(474.6 -10761.6) scale(1 -1)" patternUnits="userSpaceOnUse" viewBox="0 0 72 72"><g><rect class="cls-26" width="72" height="72"/><g><rect class="cls-26" width="72" height="72"/><g><line class="cls-27" x1="45" y1=".2" x2="45" y2="-72.2"/><line class="cls-27" x1="9" y1=".2" x2="9" y2="-72.2"/><line class="cls-27" x1="63" y1=".2" x2="63" y2="-72.2"/><line class="cls-27" x1="27" y1=".2" x2="27" y2="-72.2"/></g><g><line class="cls-27" x1="71.8" y1="63" x2="144.2" y2="63"/><line class="cls-27" x1="71.8" y1="27" x2="144.2" y2="27"/><line class="cls-27" x1="71.8" y1="45" x2="144.2" y2="45"/><line class="cls-27" x1="71.8" y1="9" x2="144.2" y2="9"/></g><g><line class="cls-27" x1="-.2" y1="63" x2="72.2" y2="63"/><line class="cls-27" x1="-.2" y1="27" x2="72.2" y2="27"/><line class="cls-27" x1="-.2" y1="45" x2="72.2" y2="45"/><line class="cls-27" x1="-.2" y1="9" x2="72.2" y2="9"/><line class="cls-27" x1="45" y1="72.2" x2="45" y2="-.2"/><line class="cls-27" x1="9" y1="72.2" x2="9" y2="-.2"/><line class="cls-27" x1="63" y1="72.2" x2="63" y2="-.2"/><line class="cls-27" x1="27" y1="72.2" x2="27" y2="-.2"/></g><g><line class="cls-27" x1="-72.2" y1="63" x2=".2" y2="63"/><line class="cls-27" x1="-72.2" y1="27" x2=".2" y2="27"/><line class="cls-27" x1="-72.2" y1="45" x2=".2" y2="45"/><line class="cls-27" x1="-72.2" y1="9" x2=".2" y2="9"/></g><g><line class="cls-27" x1="45" y1="144.2" x2="45" y2="71.8"/><line class="cls-27" x1="9" y1="144.2" x2="9" y2="71.8"/><line class="cls-27" x1="63" y1="144.2" x2="63" y2="71.8"/><line class="cls-27" x1="27" y1="144.2" x2="27" y2="71.8"/></g></g></g></pattern></defs><g id="a"><rect class="cls-1" x="-264.5" y="-258.3" width="1920" height="1080"/></g><g id="b"><g><g id="c"><g id="d"><polygon class="cls-30" points="22.4 263.5 101.7 263.5 101.9 308.7 106.2 308.7 106.2 507.3 101.9 507.3 101.7 515.5 12.9 515.5 12.9 310.3 22.4 310.3 22.4 263.5"/><polygon class="cls-20" points="22.4 263.5 101.7 263.5 101.9 308.7 106.2 308.7 106.2 507.3 101.9 507.3 101.7 515.5 12.9 515.5 12.9 310.3 22.4 310.3 22.4 263.5"/><polygon class="cls-28" points="22.4 263.5 101.7 263.5 101.9 308.7 106.2 308.7 106.2 507.3 101.9 507.3 101.7 515.5 12.9 515.5 12.9 310.3 22.4 310.3 22.4 263.5"/></g><polygon class="cls-8" points="636.1 162.6 636.1 512.7 115.3 509.6 115.3 308.7 127.4 308.7 127.4 21.9 389.8 22.1 391.1 163 636.1 162.6"/><polygon class="cls-14" points="627.7 43.4 627.7 163.1 391.1 163 391.1 43.4 627.7 43.4"/></g><g id="f"><g><rect class="cls-5" x="454.9" y="108" width="2.9" height="58.9"/><path class="cls-20" d="M513,166.9c0-31.7-24.6-57.4-55.2-58.2"/></g><g><rect class="cls-5" x="371.4" y="204.8" width="2.9" height="58.9"/><path class="cls-20" d="M316.2,263.6c0-31.7,24.6-57.4,55.2-58.2"/></g><g><rect class="cls-5" x="564" y="193" width="65.6" height="3.3"/><path class="cls-20" d="M629.6,257.9c-35.3,0-64-27.4-64.9-61.6"/></g><g id="g"><rect class="cls-4" x="101.7" y="27.2" width="25.8" height="157.4"/><rect class="cls-20" x="107.1" y="114.8" width="9.1" height="61.6"/><rect class="cls-20" x="107.1" y="106.7" width="9.1" height="8.1"/><rect class="cls-20" x="107.1" y="176.5" width="9.1" height="8.1"/><rect class="cls-20" x="108.9" y="111.7" width="2.3" height="67.9"/><line class="cls-20" x1="107.1" y1="111.7" x2="116.2" y2="111.7"/><line class="cls-20" x1="107.1" y1="179.6" x2="116.2" y2="179.6"/><polygon class="cls-20" points="116.2 106.7 107.2 106.7 107.1 27.2 116.2 27.2 116.2 106.7"/><rect class="cls-20" x="108.9" y="30.3" width="2.3" height="72.9"/><line class="cls-20" x1="107.1" y1="30.3" x2="116.2" y2="30.3"/><line class="cls-20" x1="107.1" y1="103.2" x2="116.2" y2="103.2"/></g><g><rect class="cls-4" x="31.3" y="314" width="79.5" height="4"/><path class="cls-20" d="M32.2,317.9c1.3,38.3,34.9,69.4,75.5,69.4h.3l-.3-69.4"/></g><g id="h"><rect class="cls-4" x="106.2" y="308.7" width="9.1" height="198.6"/><line class="cls-20" x1="106.2" y1="466.5" x2="115.3" y2="466.5"/><rect class="cls-20" x="106.2" y="393.1" width="9.1" height="70.3"/><rect class="cls-20" x="106.2" y="386" width="9.1" height="7.1"/><rect class="cls-20" x="106.2" y="463.4" width="9.1" height="7.1"/><rect class="cls-20" x="106.2" y="502.8" width="9.1" height="4.5"/><rect class="cls-20" x="106.2" y="308.9" width="9.1" height="4.5"/><rect class="cls-20" x="107.9" y="390" width="2.3" height="76.5"/><line class="cls-20" x1="106.2" y1="390" x2="115.3" y2="390"/><rect class="cls-20" x="106.2" y="470.5" width="9.1" height="32.3"/><rect class="cls-20" x="107.9" y="470.5" width="2.3" height="32.3"/><line class="cls-20" x1="107.9" y1="386" x2="107.9" y2="313.4"/></g><polygon class="cls-31" points="647.5 227.2 677.4 244.5 677.4 209.9 647.5 227.2"/></g><g id="i"><path class="cls-7" d="M112.4,6.9v20.3h15v-5.3h256.1v241.6h-9.2v15h66.6v-15h-49.9v-92.9h63.8v-7.5h-63.8V43.4h48.9v51.7h7.5v-51.7h180.2v119.7h-114v7.5h114v22.4h15V6.9H112.4h0ZM391.1,21.9h236.6v14h-236.5v-14h0Z"/><path class="cls-7" d="M112.4,507.3v17.7h15v-.5h515.2v-266.7h-15v10.9h-47.3v24.8h47.3v215.9H127.4v-2.2h-15ZM627.7,276.3v9.8h-39.8v-9.8h39.8Z"/><rect class="cls-9" x="101.7" y="6.9" width="10.7" height="20.3"/><rect class="cls-7" x="12.9" y="515.5" width="88.8" height="9.5"/><polygon class="cls-6" points="101.7 254.1 22.4 254.1 12.9 254.1 12.9 263.5 12.9 310.3 22.4 310.3 22.4 263.5 101.7 263.5 101.7 254.1"/><g id="j"><rect class="cls-29" x="15.1" y="310.4" width="1.5" height="205"/></g><polygon class="cls-7" points="127.4 184.6 127.4 263.5 316.2 263.5 316.2 278.5 127.4 278.5 127.4 308.7 112.4 308.7 112.4 184.6 127.4 184.6"/><rect class="cls-9" x="101.7" y="184.6" width="10.7" height="124.1"/><rect class="cls-9" x="101.9" y="507.3" width="10.5" height="17.7"/></g><g id="k"><g id="l"><rect class="cls-21" x="183" y="23.5" width="133.1" height="147.9" rx="5.1" ry="5.1"/><rect class="cls-21" x="196.1" y="30.3" width="48.8" height="31" rx="7.2" ry="7.2"/><rect class="cls-21" x="254.4" y="30.3" width="48.8" height="31" rx="7.2" ry="7.2"/><g><path class="cls-23" d="M184.4,59.5l130.7,20.5-130.8-20.5h0Z"/><path class="cls-32" d="M184.4,59.5l130.7,20.5-130.8-20.5h0Z"/></g></g><rect id="m" class="cls-21" x="210.4" y="372.8" width="87.9" height="51.4" rx="4.4" ry="4.4"/><g id="n"><path class="cls-21" d="M311.5,477.6h-114.2c-1.4,0-2.5-1.1-2.5-2.5v-38.4c0-2.2,1.8-4,4-4h111.2c2.2,0,4,1.8,4,4v38.4c0,1.4-1.1,2.5-2.5,2.5Z"/><path class="cls-21" d="M179.7,496.1h149.3c1.3,0,2-1.6,1-2.5l-16.1-15.9h-119.2l-16.1,15.9c-.9.9-.3,2.5,1.1,2.5h0Z"/><path class="cls-21" d="M178.6,493.6l16.1-16v-40.9c0-2.2-1.8-4-4-4h-8.5c-3.4,0-6.2,2.8-6.2,6.2v53.6c0,1.3,1.6,2,2.5,1.1h0Z"/><path class="cls-21" d="M330.1,493.6l-16.1-16v-40.9c0-2.2,1.8-4,4-4h8.5c3.4,0,6.2,2.8,6.2,6.2v53.6c0,1.3-1.6,2-2.5,1.1h0Z"/></g><g id="o"><path class="cls-21" d="M550.9,43.9c.7,1.5,1.2,3.2,1.6,5.1.3,1.6.6,3.3.7,5.2s1.5,27.3-13.2,27.3-13.3-25.4-13.2-27.3c.1-1.9.4-3.6.7-5.2.4-1.9,1-3.6,1.6-5.1h21.7,0Z"/><path class="cls-21" d="M527.6,49h24.9-24.9Z"/></g><g id="p"><g><path class="cls-21" d="M601,56c2.5.4,4.4,2.5,4.4,5s-2.3,5.1-5.1,5.1-5.1-2.3-5.1-5.1,1.9-4.7,4.4-5.1"/><path class="cls-21" d="M599.7,43.5v17.5s.2.5.7.5.7-.5.7-.5v-17.5h-1.4Z"/></g><g><path class="cls-21" d="M606.9,46.8h0c0,.5-.4.8-.8.8h-4.1c-.5,0-.8-.4-.8-.8h0c0-.5.4-.8.8-.8h4.1c.5,0,.8.4.8.8Z"/><rect class="cls-21" x="603.3" y="43.5" width="1.5" height="2.4"/></g><g><path class="cls-21" d="M599.6,46.8h0c0,.5-.4.8-.8.8h-4.1c-.5,0-.8-.4-.8-.8h0c0-.5.4-.8.8-.8h4.1c.5,0,.8.4.8.8Z"/><rect class="cls-21" x="596" y="43.5" width="1.5" height="2.4"/></g></g><g><g><rect class="cls-36" x="424" y="398" width="28.1" height="24.3" rx="2.2" ry="2.2" transform="translate(-161.7 429.9) rotate(-45)"/><rect class="cls-36" x="414.2" y="398.7" width="28.1" height="3.4" rx=".8" ry=".8" transform="translate(-157.7 420.1) rotate(-45)"/><circle class="cls-21" cx="434.6" cy="388.7" r="1.3"/><circle class="cls-21" cx="416.6" cy="406.7" r="1.3"/></g><g><rect class="cls-36" x="425.9" y="443.1" width="24.3" height="28.1" rx="2.2" ry="2.2" transform="translate(-194.9 443.7) rotate(-45)"/><rect class="cls-36" x="426.6" y="452.9" width="3.4" height="28.1" rx=".8" ry=".8" transform="translate(-204.7 439.6) rotate(-45)"/><circle class="cls-21" cx="434.6" cy="478.6" r="1.3"/><circle class="cls-21" cx="416.6" cy="460.6" r="1.3"/></g><g><rect class="cls-36" x="473.2" y="396.1" width="24.3" height="28.1" rx="2.2" ry="2.2" transform="translate(-147.9 463.3) rotate(-45)"/><rect class="cls-36" x="493.4" y="386.4" width="3.4" height="28.1" rx=".8" ry=".8" transform="translate(-138.1 467.4) rotate(-45)"/><circle class="cls-21" cx="488.8" cy="388.7" r="1.3"/><circle class="cls-21" cx="506.8" cy="406.7" r="1.3"/></g><g><rect class="cls-36" x="471.3" y="445" width="28.1" height="24.3" rx="2.2" ry="2.2" transform="translate(-181.1 477.1) rotate(-45)"/><rect class="cls-36" x="481" y="465.2" width="28.1" height="3.4" rx=".8" ry=".8" transform="translate(-185.2 486.8) rotate(-45)"/><circle class="cls-21" cx="488.8" cy="478.6" r="1.3"/><circle class="cls-21" cx="506.8" cy="460.6" r="1.3"/></g><circle class="cls-21" cx="461.8" cy="433.7" r="33.5"/></g></g><g id="q"><g><g id="r"><g class="cls-35"><text class="cls-33" transform="translate(492.9 246.8)"><tspan x="0" y="0">4,3 m²</tspan></text></g></g><g id="s"><g class="cls-35"><text class="cls-34" transform="translate(474.8 227.1)"><tspan x="0" y="0">F</tspan></text><text class="cls-33" transform="translate(483.6 227.1)"><tspan x="0" y="0">orstofa</tspan></text></g></g></g><g id="t"><g class="cls-35"><text class="cls-33" transform="translate(376.3 339.5)"><tspan x="0" y="0">Alrými</tspan></text></g></g><g><g id="u"><g class="cls-35"><text class="cls-33" transform="translate(530.4 143.2)"><tspan x="0" y="0">5,1 m²</tspan></text></g></g><g id="v"><g class="cls-35"><text class="cls-33" transform="translate(515.4 121.6)"><tspan x="0" y="0">Bað/Þvott</tspan></text></g></g></g><g><g id="w"><g class="cls-35"><text class="cls-33" transform="translate(39.5 434.6)"><tspan x="0" y="0">4,0 m²</tspan></text></g></g><g id="x"><g class="cls-35"><text class="cls-33" transform="translate(41.3 414.9)"><tspan x="0" y="0">Svalir</tspan></text></g></g></g><g><g id="y"><g class="cls-35"><text class="cls-33" transform="translate(220.8 154.7)"><tspan x="0" y="0">11,5 m²</tspan></text></g></g><g id="z"><g class="cls-35"><text class="cls-33" transform="translate(192.7 135)"><tspan x="0" y="0">Svefnherbergi</tspan></text></g></g></g></g><rect class="cls-9" x="391.1" y="21.9" width="236.6" height="14"/><rect class="cls-9" x="587.9" y="276.3" width="39.8" height="9.8"/><g id="aa"><g><rect class="cls-2" x="391.1" y="43.7" width="48.7" height="50"/><g><g><path class="cls-10" d="M432.7,118.6c.3-.6.7-1.1,1-1.7"/><path class="cls-16" d="M435.6,112.8c2-4.7,3.3-9.7,3.8-15"/><path class="cls-10" d="M439.5,95.7c0-.7,0-1.3,0-2"/></g><line class="cls-10" x1="391.1" y1="93.7" x2="432.7" y2="118.6"/></g></g><g><rect class="cls-5" x="581.3" y="293.6" width="46.1" height="215.5"/><g id="ab"><rect class="cls-5" x="581.3" y="297.7" width="46.1" height="43.4"/><line class="cls-20" x1="559.3" y1="336.2" x2="581.3" y2="297.7"/><path class="cls-17" d="M581.3,341c-7.3,0-15.3-1.6-21.9-4.8h0"/></g><g id="ac"><rect class="cls-20" x="583.4" y="347.8" width="35.5" height="39.2" rx="1.1" ry="1.1"/><rect class="cls-22" x="586.3" y="350.9" width="26.3" height="32.9" rx="3.7" ry="3.7"/><circle class="cls-22" cx="605.4" cy="367.4" r="1.7"/></g><g><rect class="cls-5" x="603.1" y="341" width="24.2" height="47.3"/><g><g><path class="cls-10" d="M603.1,388.4c-.7,0-1.3,0-2,0"/><path class="cls-12" d="M597.1,388c-4.8-.7-9.3-2.2-13.5-4.4"/><path class="cls-10" d="M581.8,382.6c-.6-.3-1.1-.7-1.7-1"/></g><line class="cls-10" x1="580.1" y1="381.5" x2="603.1" y2="341"/></g></g><g><rect class="cls-5" x="603.1" y="388.4" width="24.2" height="34.5"/><g><g><path class="cls-10" d="M584,395.2c.5-.4,1-.8,1.6-1.2"/><path class="cls-13" d="M588.4,392.2c3.4-1.9,7.1-3.1,11.1-3.6"/><path class="cls-10" d="M601.1,388.5c.7,0,1.3,0,2,0"/></g><line class="cls-10" x1="603.1" y1="422.9" x2="584" y2="395.2"/></g></g><g><rect class="cls-5" x="603.1" y="470.2" width="24.2" height="38.9"/><g><g><path class="cls-10" d="M581.8,477.8c.5-.4,1-.8,1.6-1.2"/><path class="cls-11" d="M586.6,474.6c3.8-2.1,8.1-3.6,12.6-4.1"/><path class="cls-10" d="M601.1,470.3c.7,0,1.3,0,2,0"/></g><line class="cls-10" x1="603.1" y1="508.6" x2="581.8" y2="477.8"/></g></g><g id="ad"><rect class="cls-20" x="582.1" y="424.9" width="45.2" height="45.2"/><rect class="cls-20" x="583.4" y="425.6" width="42.6" height="43.8" rx="1.6" ry="1.6"/><circle class="cls-22" cx="618" cy="436.6" r="5.8"/><circle class="cls-22" cx="595.3" cy="457.6" r="5.8"/><circle class="cls-22" cx="597" cy="436" r="7.4"/><circle class="cls-22" cx="615.9" cy="458.1" r="7.4"/><rect class="cls-22" x="580.3" y="427.4" width="1.8" height="40.1"/><g><circle class="cls-22" cx="586.8" cy="453.7" r="1.4"/><ellipse class="cls-22" cx="586.8" cy="453.7" rx="1.2" ry=".6"/></g><g><circle class="cls-22" cx="586.8" cy="449.3" r="1.4"/><ellipse class="cls-22" cx="586.8" cy="449.3" rx="1.2" ry=".6"/></g><g><circle class="cls-22" cx="586.8" cy="445" r="1.4"/><ellipse class="cls-22" cx="586.8" cy="445" rx="1.2" ry=".6"/></g><g><circle class="cls-22" cx="586.8" cy="440.6" r="1.4"/><ellipse class="cls-22" cx="586.8" cy="440.6" rx="1.2" ry=".6"/></g></g><g><rect class="cls-5" x="603.1" y="422.9" width="24.2" height="47.3"/><g><g><path class="cls-10" d="M603.1,470.2c-.7,0-1.3,0-2,0"/><path class="cls-12" d="M597.1,469.8c-4.8-.7-9.3-2.2-13.5-4.4"/><path class="cls-10" d="M581.8,464.4c-.6-.3-1.1-.7-1.7-1"/></g><line class="cls-10" x1="580.1" y1="463.4" x2="603.1" y2="422.9"/></g></g></g><g id="ae"><rect class="cls-5" x="393.2" y="44.7" width="44.6" height="44.6"/><rect class="cls-5" x="393.2" y="89.3" width="44.6" height="1.7"/><g id="af"><path class="cls-15" d="M423.3,67c0-4.1-3.3-7.4-7.4-7.4s-3.2.5-4.4,1.5c-1.8,1.3-3,3.5-3,6,0,4.1,3.3,7.4,7.4,7.4s7.4-3.3,7.4-7.4Z"/><line class="cls-15" x1="427" y1="49.7" x2="412" y2="60.7"/><line class="cls-15" x1="404.1" y1="84.4" x2="419.6" y2="73.4"/></g></g><g id="ag"><rect id="ah" class="cls-5" x="448" y="43.7" width="66.1" height="35.9"/><g id="ai"><ellipse class="cls-20" cx="480.8" cy="63.2" rx="17.3" ry="14.2"/><ellipse class="cls-22" cx="480.8" cy="62.1" rx="11.7" ry="8.5"/><ellipse class="cls-22" cx="480.8" cy="61.7" rx="2" ry="2"/></g><g id="aj"><rect class="cls-5" x="448" y="43.7" width="66.1" height="14.6"/><line class="cls-20" x1="477.4" y1="73.1" x2="448" y2="58.3"/><path class="cls-17" d="M481.1,58.3c0,5-1.3,10.4-3.7,14.8h0"/><line class="cls-20" x1="484.8" y1="73.1" x2="514.2" y2="58.3"/><path class="cls-17" d="M481.1,58.3c0,5,1.3,10.4,3.7,14.8h0"/></g></g><line class="cls-3" x1="569.2" y1="102.1" x2="569.2" y2="44"/><g id="ak"><g><rect class="cls-25" x="391.3" y="170.8" width="45.1" height="92.4"/><g><rect class="cls-19" x="391.3" y="170.8" width="45.1" height="92.4"/><path class="cls-18" d="M436.5,217c6.8,0,13.1,2.5,18.4,6.8"/><line class="cls-10" x1="454.9" y1="223.8" x2="436.5" y2="263.2"/><path class="cls-18" d="M436.5,217c6.8,0,13.1-2.5,18.4-6.8"/><line class="cls-10" x1="454.9" y1="210.2" x2="436.5" y2="170.8"/></g></g></g><g id="al"><g><rect class="cls-25" x="127.5" y="224" width="80.9" height="39.5"/><g><rect class="cls-19" x="127.5" y="224" width="80.9" height="39.5"/><path class="cls-18" d="M167.9,224c0-5.9,2.2-11.4,5.9-16.1"/><line class="cls-10" x1="173.9" y1="207.9" x2="208.4" y2="224"/><path class="cls-18" d="M167.9,224c0-5.9-2.2-11.4-5.9-16.1"/><line class="cls-10" x1="162" y1="207.9" x2="127.5" y2="224"/></g></g></g><g id="am"><g><rect class="cls-25" x="208.4" y="224" width="80.9" height="39.5"/><g><rect class="cls-19" x="208.4" y="224" width="80.9" height="39.5"/><path class="cls-18" d="M248.9,224c0-5.9,2.2-11.4,5.9-16.1"/><line class="cls-10" x1="254.8" y1="207.9" x2="289.3" y2="224"/><path class="cls-18" d="M248.9,224c0-5.9-2.2-11.4-5.9-16.1"/><line class="cls-10" x1="242.9" y1="207.9" x2="208.4" y2="224"/></g></g></g></g></g></g><g><circle class="cls-24" cx="29.9" cy="28.3" r="16"/><path class="cls-29" d="M39.8,15.6c-2.9-2.3-6.4-3.4-9.8-3.4-4.8,0-9.5,2.1-12.6,6.2-5.4,7-4.2,17,2.8,22.5,2.9,2.3,6.4,3.4,9.8,3.4s9.5-2.1,12.6-6.2c5.4-7,4.2-17-2.8-22.5ZM41.9,37.6c-2.9,3.7-7.3,5.8-12,5.8s-6.6-1.1-9.3-3.2c-3.2-2.5-5.2-6.1-5.7-10.1-.4-3.6.4-7.2,2.4-10.2l12.2,9.6,1.5-1.9-12.2-9.6c2.9-3.1,6.9-4.9,11.2-4.9,3.4,0,6.6,1.1,9.3,3.2,6.6,5.2,7.8,14.7,2.6,21.3Z"/><path class="cls-29" d="M18.5,15.3l-1,1.2-5.9-.8,4.1,3.2-1,1.2-6.5-5.1,1-1.2,6,.8-4.1-3.2,1-1.2,6.5,5.1Z"/></g></svg>