<?xml version="1.0" encoding="UTF-8"?><svg xmlns="http://www.w3.org/2000/svg" xmlns:xlink="http://www.w3.org/1999/xlink" viewBox="0 0 828 891.95"><defs><style>.bz {
        stroke: #292423;
      }

      .bz, .ca, .cb, .cc, .cd, .ce, .cf, .cg, .ch, .ci, .cj, .ck, .cl, .cm, .cn, .co, .cp, .cq, .cr {
        stroke-miterlimit: 10;
      }

      .bz, .ca, .cc, .cd, .ce, .cf, .cg, .ch, .ci, .cj, .cs, .ck, .cl, .cm, .co, .cp, .cq {
        stroke-width: .5px;
      }

      .bz, .cc, .ct, .ce, .cf, .cu, .cg, .ch, .cn, .cq, .cr {
        fill: none;
      }

      .ca, .cb, .cd, .cf, .cq {
        stroke: #435354;
      }

      .ca, .cb, .cd, .cv {
        fill: #a7b6b7;
      }

      .cc {
        stroke: #000;
      }

      .cd, .cq {
        stroke-dasharray: 6 3;
      }

      .ct {
        stroke: #231f20;
        stroke-width: .3px;
      }

      .cw {
        letter-spacing: -.05em;
      }

      .cx {
        fill: #fff;
      }

      .ce {
        stroke: #393231;
      }

      .cy, .cl {
        fill: #d1d5d9;
      }

      .cz {
        font-size: 18.05px;
      }

      .cz, .da {
        fill: #292423;
      }

      .cz, .db {
        font-family: D-DIN, D-DIN;
      }

      .db {
        font-size: 18px;
      }

      .cg, .cl {
        stroke: #949ca3;
      }

      .dc {
        fill: #e0dfde;
      }

      .ch, .cs, .co {
        stroke: #555051;
      }

      .ci {
        fill: #1f2621;
      }

      .ci, .cj, .cn {
        stroke: #1f2621;
      }

      .dd {
        fill: url(#m);
        opacity: .7;
      }

      .cj {
        fill: #4d534e;
      }

      .cs {
        stroke-linejoin: bevel;
      }

      .cs, .co {
        fill: #b7b8b7;
      }

      .ck {
        fill: #e0e0e0;
      }

      .ck, .cp {
        stroke: #666766;
      }

      .cm {
        fill: #f2f4f6;
      }

      .cm, .cr {
        stroke: #5e5d5e;
      }

      .cn {
        stroke-width: 2px;
      }

      .cp {
        fill: #c6c6c6;
      }</style><pattern id="m" data-name="Grid TARAS" x="0" y="0" width="72" height="72" patternTransform="translate(537.27 -973.53)" patternUnits="userSpaceOnUse" viewBox="0 0 72 72"><g><rect class="cu" width="72" height="72"/><g><line class="ct" x1="45" y1="71.75" x2="45" y2="144.25"/><line class="ct" x1="9" y1="71.75" x2="9" y2="144.25"/><line class="ct" x1="63" y1="71.75" x2="63" y2="144.25"/><line class="ct" x1="27" y1="71.75" x2="27" y2="144.25"/></g><g><line class="ct" x1="71.75" y1="9" x2="144.25" y2="9"/><line class="ct" x1="71.75" y1="45" x2="144.25" y2="45"/><line class="ct" x1="71.75" y1="27" x2="144.25" y2="27"/><line class="ct" x1="71.75" y1="63" x2="144.25" y2="63"/></g><g><line class="ct" x1="-.25" y1="9" x2="72.25" y2="9"/><line class="ct" x1="-.25" y1="45" x2="72.25" y2="45"/><line class="ct" x1="-.25" y1="27" x2="72.25" y2="27"/><line class="ct" x1="-.25" y1="63" x2="72.25" y2="63"/><line class="ct" x1="45" y1="-.25" x2="45" y2="72.25"/><line class="ct" x1="9" y1="-.25" x2="9" y2="72.25"/><line class="ct" x1="63" y1="-.25" x2="63" y2="72.25"/><line class="ct" x1="27" y1="-.25" x2="27" y2="72.25"/></g><g><line class="ct" x1="-72.25" y1="9" x2=".25" y2="9"/><line class="ct" x1="-72.25" y1="45" x2=".25" y2="45"/><line class="ct" x1="-72.25" y1="27" x2=".25" y2="27"/><line class="ct" x1="-72.25" y1="63" x2=".25" y2="63"/></g><g><line class="ct" x1="45" y1="-72.25" x2="45" y2=".25"/><line class="ct" x1="9" y1="-72.25" x2="9" y2=".25"/><line class="ct" x1="63" y1="-72.25" x2="63" y2=".25"/><line class="ct" x1="27" y1="-72.25" x2="27" y2=".25"/></g></g></pattern></defs><g id="j" data-name="rzut_3"><g id="k" data-name="AREAS"><g id="l" data-name="taras_inside"><rect class="dc" x="124.09" y="742.76" width="324.2" height="134.65"/><rect class="cr" x="124.09" y="742.76" width="324.2" height="134.65"/><rect class="dd" x="124.09" y="742.76" width="324.2" height="134.65"/></g><polygon class="cm" points="123.24 47.04 123.24 234.63 73.92 234.63 73.92 716.83 785.99 716.83 785.99 47.04 123.24 47.04"/><rect class="ck" x="123.24" y="76.1" width="236.81" height="142.53"/><rect class="ck" x="640.45" y="95.48" width="145.54" height="139.16"/><rect class="cp" x="123.24" y="54.52" width="236.81" height="13.43"/><rect class="cp" x="640.45" y="54.52" width="145.54" height="32.47"/><rect class="cp" x="401.49" y="234.63" width="7.6" height="36.64"/></g><g id="n" data-name="WINDOWS_DOORS"><rect class="co" x="140.74" y="716.83" width="291.96" height="25.93"/><rect class="co" x="547.97" y="716.83" width="75.3" height="25.93" transform="translate(1171.24 1459.6) rotate(180)"/><g><rect class="cs" x="558.02" y="270.43" width="2.97" height="59.19" transform="translate(259.48 859.53) rotate(-90)"/><path class="bz" d="M529.92,357.5c31.83,0,57.74-24.93,58.56-55.98"/></g><g><rect class="co" x="615.31" y="54.52" width="3.34" height="65.62"/><path class="bz" d="M552.3,54.52c0,35.29,28.05,64.01,63.01,64.93"/></g><g><rect class="co" x="108.25" y="770.91" width="79.46" height="3.96" transform="translate(-624.91 920.88) rotate(-90)"/><path class="ce" d="M149.96,811.7c38.34-1.26,75.05-34.9,75.05-75.5"/></g><g id="o" data-name="balcony_window"><rect class="co" x="282.18" y="585.53" width="9.08" height="291.96" transform="translate(-444.79 1018.24) rotate(-90)"/><rect class="ch" x="303.07" y="653.32" width="9.08" height="156.39" transform="translate(-423.9 1039.13) rotate(-90)"/><rect class="ch" x="222.68" y="729.31" width="9.08" height="4.4" transform="translate(-504.3 958.73) rotate(-90)"/><rect class="ch" x="383.25" y="729.53" width="9.08" height="3.96" transform="translate(-343.73 1119.3) rotate(-90)"/><rect class="ch" x="425.89" y="729.24" width="9.08" height="4.54" transform="translate(-301.08 1161.95) rotate(-90)"/><rect class="ch" x="138.56" y="729.15" width="9.08" height="4.72" transform="translate(-588.41 874.61) rotate(-90)"/><rect class="ch" x="306.46" y="654.97" width="2.31" height="156.39" transform="translate(-425.55 1040.78) rotate(-90)"/><rect class="ch" x="404.42" y="712.32" width="9.08" height="38.39" transform="translate(-322.55 1140.48) rotate(-90)"/><rect class="ch" x="407.81" y="713.97" width="2.31" height="38.39" transform="translate(-324.2 1142.13) rotate(-90)"/><line class="ch" x1="225.02" y1="734.32" x2="145.46" y2="734.32"/></g><g id="p" data-name="balcony_window"><rect class="co" x="581.08" y="693.86" width="9.08" height="75.3" transform="translate(-145.89 1317.14) rotate(-90)"/><rect class="ch" x="567.33" y="711.95" width="9.08" height="39.13" transform="translate(-159.64 1303.38) rotate(-90)"/><rect class="ch" x="545.6" y="729.35" width="9.08" height="4.34" transform="translate(-181.38 1281.65) rotate(-90)"/><rect class="ch" x="588.94" y="729.47" width="9.08" height="4.09" transform="translate(-138.03 1325) rotate(-90)"/><rect class="ch" x="616.39" y="729.17" width="9.08" height="4.69" transform="translate(-110.59 1352.44) rotate(-90)"/><rect class="ch" x="570.72" y="713.6" width="2.31" height="39.13" transform="translate(-161.29 1305.04) rotate(-90)"/><rect class="ch" x="602.51" y="719.99" width="9.08" height="23.05" transform="translate(-124.46 1338.57) rotate(-90)"/><rect class="ch" x="605.9" y="721.64" width="2.31" height="23.05" transform="translate(-126.11 1340.22) rotate(-90)"/></g><rect class="co" x="718.08" y="362.66" width="161.75" height="25.93" transform="translate(423.33 1174.57) rotate(-90)"/><g id="q" data-name="balcony_window"><rect class="co" x="796.13" y="294.74" width="9.08" height="161.75" transform="translate(1601.34 751.24) rotate(180)"/><rect class="ch" x="796.13" y="299.08" width="9.08" height="109.11" transform="translate(1601.34 707.27) rotate(180)"/><rect class="ch" x="796.13" y="294.74" width="9.08" height="4.34" transform="translate(1601.34 593.82) rotate(180)"/><rect class="ch" x="796.13" y="408.19" width="9.08" height="4.09" transform="translate(1601.34 820.48) rotate(180)"/><rect class="ch" x="796.13" y="451.8" width="9.08" height="4.69" transform="translate(1601.34 908.3) rotate(180)"/><rect class="ch" x="801.16" y="299.08" width="2.31" height="109.11" transform="translate(1604.64 707.27) rotate(180)"/><rect class="ch" x="796.13" y="412.29" width="9.08" height="39.52" transform="translate(1601.34 864.09) rotate(180)"/><rect class="ch" x="801.16" y="412.29" width="2.31" height="39.52" transform="translate(1604.64 864.09) rotate(180)"/></g><polygon class="cv" points="586.62 33.54 569.32 3.59 603.92 3.59 586.62 33.54"/><g><rect class="cs" x="329.16" y="170.06" width="2.96" height="58.82" transform="translate(530.1 -131.17) rotate(90)"/><path class="bz" d="M360.04,142.16c-31.63,0-57.37,24.86-58.2,55.83"/></g><g><rect class="cs" x="668.38" y="177.72" width="2.96" height="58.82" transform="translate(876.98 -462.73) rotate(90)"/><path class="bz" d="M640.45,149.82c31.63,0,57.37,24.86,58.2,55.83"/></g><g><polygon class="cs" points="805.21 736.05 811.92 742.76 811.92 648.14 805.21 648.14 805.21 652.47 805.21 736.05"/><polygon class="cs" points="796.13 726.97 796.13 652.47 796.13 648.14 785.99 648.14 785.99 716.83 796.13 726.97"/></g><g><polygon class="cs" points="796.13 726.97 785.99 716.83 736.56 716.83 736.56 726.97 740.89 726.97 796.13 726.97"/><polygon class="cs" points="805.21 736.05 740.89 736.05 736.56 736.05 736.56 742.76 811.92 742.76 805.21 736.05"/></g><rect class="co" x="736.56" y="726.97" width="5.06" height="9.08"/><rect class="co" x="798.14" y="646.13" width="5.06" height="9.08" transform="translate(1451.34 -150) rotate(90)"/><rect class="cs" x="741.62" y="726.97" width="52.24" height="9.08"/><rect class="cs" x="796.13" y="653.2" width="9.08" height="71.5"/><rect class="cs" x="741.62" y="732.01" width="52.24" height="2.31"/><rect class="cs" x="801.16" y="653.2" width="2.31" height="71.5"/><rect class="co" x="793.86" y="724.71" width="11.35" height="11.35"/></g><g id="r" data-name="FURNITURE_ADD"><g id="s" data-name="BIG_BED"><rect class="cl" x="601.71" y="349.6" width="133.14" height="147.93" rx="5.15" ry="5.15"/><rect class="cl" x="672.9" y="459.77" width="48.84" height="31.01" rx="7.18" ry="7.18" transform="translate(1394.65 950.55) rotate(-180)"/><rect class="cl" x="614.67" y="459.77" width="48.84" height="31.01" rx="7.18" ry="7.18" transform="translate(1278.18 950.55) rotate(-180)"/><g><path class="cg" d="M733.48,461.6l-130.75-20.47,130.75,20.47Z"/><path class="cy" d="M733.48,461.6l-130.75-20.47,130.75,20.47Z"/></g></g><rect id="t" data-name="coffee_table" class="cl" x="182.94" y="575.2" width="62.06" height="51.37" rx="4.35" ry="4.35" transform="translate(-386.92 814.86) rotate(-90)"/><rect id="u" data-name="coffee_table" class="cl" x="614.76" y="604.95" width="51.37" height="51.37" rx="4.35" ry="4.35" transform="translate(9.82 1271.08) rotate(-90)"/><rect id="v" data-name="coffee_table" class="cl" x="181.08" y="542.03" width="87.93" height="51.37" rx="4.35" ry="4.35" transform="translate(450.09 1135.43) rotate(-180)"/><g id="w" data-name="sofa"><path class="cl" d="M70.61,580.5h123.37c1.39,0,2.52,1.13,2.52,2.52v38.4c0,2.2-1.78,3.98-3.98,3.98h-120.45c-2.2,0-3.98-1.78-3.98-3.98v-38.4c0-1.39,1.13-2.52,2.52-2.52Z" transform="translate(-470.65 735.24) rotate(-90)"/><path class="cl" d="M91.37,523.68v158.53c0,1.33,1.61,1.99,2.54,1.05l15.93-16.11v-128.41s-15.93-16.11-15.93-16.11c-.93-.95-2.54-.28-2.54,1.05Z"/><path class="cl" d="M93.87,522.59l15.97,16.15h40.92c2.2,0,3.98-1.78,3.98-3.98v-8.54c0-3.4-2.76-6.16-6.16-6.16h-53.65c-1.32,0-1.99,1.59-1.06,2.53Z"/><path class="cl" d="M93.87,683.3l15.97-16.15h40.92c2.2,0,3.98,1.78,3.98,3.98v8.54c0,3.4-2.76,6.16-6.16,6.16h-53.65c-1.32,0-1.99-1.59-1.06-2.53Z"/></g><g id="x" data-name="sofa"><path class="cl" d="M596.27,537.25h160.2c1.39,0,2.52,1.13,2.52,2.52v38.4c0,2.2-1.78,3.98-3.98,3.98h-157.28c-2.2,0-3.98-1.78-3.98-3.98v-38.4c0-1.39,1.13-2.52,2.52-2.52Z"/><path class="cl" d="M708.58,582.15h47.89c1.39,0,2.52,1.13,2.52,2.52v41.98c0,2.2-1.78,3.98-3.98,3.98h-44.97c-2.2,0-3.98-1.78-3.98-3.98v-41.98c0-1.39,1.13-2.52,2.52-2.52Z"/><path class="cl" d="M774.05,518.78h-195.37c-1.33,0-1.99,1.61-1.05,2.54l16.11,15.93h165.24s16.11-15.93,16.11-15.93c.95-.93.28-2.54-1.05-2.54Z"/><path class="cl" d="M775.14,521.28l-16.15,15.97v89.4c0,2.2,1.78,3.98,3.98,3.98h8.54c3.4,0,6.16-2.76,6.16-6.16v-102.13c0-1.32-1.59-1.99-2.53-1.06Z"/><path class="cl" d="M577.6,521.28l16.15,15.97v40.92c0,2.2-1.78,3.98-3.98,3.98h-8.54c-3.4,0-6.16-2.76-6.16-6.16v-53.65c0-1.32,1.59-1.99,2.53-1.06Z"/></g><g id="y" data-name="sofa"><path class="cl" d="M273.42,615.27h44.43c1.39,0,2.52,1.13,2.52,2.52v38.4c0,2.2-1.78,3.98-3.98,3.98h-41.51c-2.2,0-3.98-1.78-3.98-3.98v-38.4c0-1.39,1.13-2.52,2.52-2.52Z" transform="translate(960.54 865.72) rotate(133.8)"/><path class="cl" d="M297.63,694.77l55.09-57.45c.92-.96.22-2.55-1.11-2.52l-22.65.6-34.24,35.71.35,22.65c.02,1.33,1.64,1.97,2.56,1.01Z"/><path class="cl" d="M295.07,693.82l-.35-22.71-29.53-28.32c-1.59-1.52-4.11-1.47-5.63.12l-5.91,6.16c-2.36,2.46-2.27,6.36.18,8.71l38.72,37.13c.95.91,2.54.22,2.52-1.1Z"/><path class="cl" d="M351.66,634.8l-22.7.6-29.53-28.32c-1.59-1.52-1.64-4.04-.12-5.63l5.91-6.16c2.36-2.46,6.26-2.54,8.71-.18l38.72,37.13c.95.91.33,2.53-.99,2.56Z"/></g><g><g><g id="z" data-name="&amp;lt;Radial Repeat&amp;gt;"><g><rect class="cl" x="375.19" y="592.03" width="29.73" height="25.67" rx="2.23" ry="2.23" transform="translate(-136.17 1095.89) rotate(-100.2)"/><rect class="cl" x="360.8" y="605.67" width="29.73" height="3.57" rx=".83" ry=".83" transform="translate(-155.65 1084.77) rotate(-100.2)"/><circle class="cl" cx="374.05" cy="621.44" r="1.39"/><circle class="cl" cx="369.28" cy="594.91" r="1.39"/></g></g><g id="aa" data-name="&amp;lt;Radial Repeat&amp;gt;"><g><rect class="cl" x="402" y="540.19" width="29.73" height="25.67" rx="2.23" ry="2.23" transform="translate(-211.86 262.65) rotate(-28.2)"/><rect class="cl" x="395.09" y="538.36" width="29.73" height="3.57" rx=".83" ry=".83" transform="translate(-206.59 257.86) rotate(-28.2)"/><circle class="cl" cx="396.15" cy="542.93" r="1.39"/><circle class="cl" cx="419.91" cy="530.19" r="1.39"/></g></g><g id="ab" data-name="&amp;lt;Radial Repeat&amp;gt;"><g><rect class="cl" x="459.58" y="549.67" width="29.73" height="25.67" rx="2.23" ry="2.23" transform="translate(521.32 -171.88) rotate(43.8)"/><rect class="cl" x="469.7" y="550.17" width="29.73" height="3.57" rx=".83" ry=".83" transform="translate(516.83 -181.82) rotate(43.8)"/><circle class="cl" cx="477.65" cy="539.69" r="1.39"/><circle class="cl" cx="497.11" cy="558.35" r="1.39"/></g></g><g id="ac" data-name="&amp;lt;Radial Repeat&amp;gt;"><g><rect class="cl" x="468.36" y="607.37" width="29.73" height="25.67" rx="2.23" ry="2.23" transform="translate(1251.92 455.05) rotate(115.8)"/><rect class="cl" x="481.53" y="624.78" width="29.73" height="3.57" rx=".83" ry=".83" transform="translate(1276.54 452.33) rotate(115.8)"/><circle class="cl" cx="505.92" cy="616.2" r="1.39"/><circle class="cl" cx="494.18" cy="640.47" r="1.39"/></g></g><g id="ad" data-name="&amp;lt;Radial Repeat&amp;gt;"><g><rect class="cl" x="416.2" y="633.55" width="29.73" height="25.67" rx="2.23" ry="2.23" transform="translate(770.45 1345.28) rotate(-172.2)"/><rect class="cl" x="414.22" y="659.08" width="29.73" height="3.57" rx=".83" ry=".83" transform="translate(764.53 1373.84) rotate(-172.2)"/><circle class="cl" cx="441.89" cy="666.72" r="1.39"/><circle class="cl" cx="415.18" cy="663.06" r="1.39"/></g></g></g><circle class="cl" cx="439.13" cy="597.4" r="48.5"/></g><g id="ae" data-name="bath_kibel"><g><path class="cl" d="M209.67,76.61c-.68,1.49-1.23,3.2-1.64,5.12-.33,1.59-.57,3.32-.7,5.19s-1.54,27.31,13.16,27.31,13.29-25.44,13.16-27.31c-.13-1.87-.36-3.61-.7-5.19-.4-1.92-.95-3.63-1.64-5.12h-21.65Z"/><path class="cl" d="M232.95,81.73h-24.92,24.92Z"/></g></g><g id="af" data-name="bath_prysznic"><g><path class="cl" d="M152.2,88.6c-2.51.36-4.38,2.51-4.38,5.05,0,2.82,2.28,5.1,5.1,5.1s5.1-2.28,5.1-5.1c0-2.56-1.9-4.73-4.44-5.06"/><path class="cl" d="M153.57,76.1v17.53s-.19.47-.71.47-.66-.47-.66-.47v-17.53h1.37Z"/></g><g><rect class="cl" x="148.36" y="76.45" width="1.65" height="5.8" rx=".83" ry=".83" transform="translate(228.54 -69.83) rotate(90)"/><rect class="cl" x="147.97" y="76.59" width="2.43" height="1.45" transform="translate(226.5 -71.87) rotate(90)"/></g><g><rect class="cl" x="155.65" y="76.45" width="1.65" height="5.8" rx=".83" ry=".83" transform="translate(235.83 -77.12) rotate(90)"/><rect class="cl" x="155.26" y="76.59" width="2.43" height="1.45" transform="translate(233.79 -79.16) rotate(90)"/></g></g><g id="ag" data-name="Artwork 5"><g><path class="cl" d="M593.23,496.15h-18.62c-2.76,0-5-2.24-5-5v-18.62c0-2.76,2.24-5,5-5h18.62c2.76,0,5,2.24,5,5v18.62c0,2.76-2.24,5-5,5"/><rect class="cl" x="569.61" y="467.53" width="28.62" height="28.62" rx="5" ry="5"/></g></g><g id="ah" data-name="Artwork 5"><g><path class="cl" d="M761.34,496.15h-18.62c-2.76,0-5-2.24-5-5v-18.62c0-2.76,2.24-5,5-5h18.62c2.76,0,5,2.24,5,5v18.62c0,2.76-2.24,5-5,5"/><rect class="cl" x="737.72" y="467.53" width="28.62" height="28.62" rx="5" ry="5"/></g></g><path class="cl" d="M214.35,444.93c-2.1,0-6.77-.79-7.36.09-.59.88,1.05,2.57,7.48,4.41,6.43,1.83,12.34,1.56,12.34,1.56,0,0,5.91.28,12.34-1.56,6.43-1.83,8.07-3.52,7.48-4.41-.59-.88-5.26-.09-7.36-.09-2.1,0-2.68-.74,1.03-4.73,4.76-5.14,4.82-12.47,4.82-12.47h-18.3s-18.3,0-18.3,0c0,0,.05,7.33,4.82,12.47,3.7,3.99,3.13,4.72,1.03,4.73Z"/><path class="cl" d="M168.78,444.93c-2.1,0-6.77-.79-7.36.09-.59.88,1.05,2.57,7.48,4.41,6.43,1.83,12.34,1.56,12.34,1.56,0,0,5.91.28,12.34-1.56,6.43-1.83,8.07-3.52,7.48-4.41-.59-.88-5.26-.09-7.36-.09-2.1,0-2.68-.74,1.03-4.73,4.76-5.14,4.82-12.47,4.82-12.47h-18.3s-18.3,0-18.3,0c0,0,.05,7.33,4.82,12.47,3.7,3.99,3.13,4.72,1.03,4.73Z"/></g><g id="ai" data-name="FURNITURE_INC"><g id="aj" data-name="FURNITURE_INC"><g><g><rect class="ca" x="367.65" y="54.81" width="50.07" height="42.72"/><g><path class="cq" d="M410.4,118.77c4.48-6.21,7.06-13.48,7.06-21.25"/><line class="ca" x1="367.64" y1="97.52" x2="410.4" y2="118.77"/></g></g><g id="ak" data-name="bath_shelf1"><rect id="al" data-name="bath_blat" class="ca" x="640.45" y="95.48" width="97.63" height="46.22"/><g id="am" data-name="bath_zlew"><ellipse class="ca" cx="665.31" cy="118.64" rx="14.33" ry="14.2"/><ellipse class="ca" cx="665.31" cy="117.61" rx="9.66" ry="8.55"/><ellipse class="ca" cx="665.31" cy="117.19" rx="2.09" ry="2.02"/><rect class="ca" x="664.18" y="105.33" width="2.26" height="9.35" rx="1.13" ry="1.13"/></g></g><g id="an" data-name="bath_pralka"><rect class="ca" x="738.08" y="95.5" width="47.91" height="46.2"/><rect class="ca" x="738.08" y="141.7" width="47.91" height="1.71"/><g id="ao" data-name="pralka icon"><path class="ca" d="M770.37,118.6c0-4.25-3.58-7.7-7.99-7.7-1.77,0-3.41.56-4.74,1.5-1.97,1.4-3.25,3.66-3.25,6.2,0,4.25,3.58,7.7,7.99,7.7s7.99-3.45,7.99-7.7Z"/><line class="cd" x1="774.37" y1="100.63" x2="758.27" y2="112"/><line class="cd" x1="749.79" y1="136.56" x2="766.48" y2="125.21"/></g></g><line class="cb" x1="183.35" y1="76.1" x2="183.35" y2="166.65"/><g><rect class="ca" x="417.73" y="54.81" width="96.48" height="42.72"/><g><path class="cq" d="M466.09,97.39c0,7.03-2.39,13.62-6.57,19.28"/><line class="ca" x1="417.85" y1="97.39" x2="459.52" y2="116.67"/></g><g><path class="cq" d="M466.04,97.39c0,7.03,2.39,13.62,6.57,19.28"/><line class="cf" x1="514.28" y1="97.39" x2="472.62" y2="116.67"/></g></g><g><rect class="ca" x="593.93" y="243" width="63.97" height="44.1"/><g><path class="cq" d="M626,287.1c0,5.25-1.59,10.18-4.36,14.41"/><line class="ca" x1="594.02" y1="287.1" x2="621.64" y2="301.51"/></g><g><path class="cq" d="M625.97,287.1c0,5.25,1.59,10.18,4.36,14.41"/><line class="cf" x1="657.95" y1="287.1" x2="630.33" y2="301.51"/></g></g><g><rect class="ca" x="657.9" y="243" width="63.97" height="44.1"/><g><path class="cq" d="M689.97,287.1c0,5.25-1.59,10.18-4.36,14.41"/><line class="ca" x1="657.98" y1="287.1" x2="685.61" y2="301.51"/></g><g><path class="cq" d="M689.94,287.1c0,5.25,1.59,10.18,4.36,14.41"/><line class="cf" x1="721.92" y1="287.1" x2="694.3" y2="301.51"/></g></g><g><rect class="ca" x="721.87" y="243" width="63.97" height="44.1"/><g><path class="cq" d="M753.94,287.1c0,5.25-1.59,10.18-4.36,14.41"/><line class="ca" x1="721.95" y1="287.1" x2="749.58" y2="301.51"/></g><g><path class="cq" d="M753.91,287.1c0,5.25,1.59,10.18,4.36,14.41"/><line class="cf" x1="785.89" y1="287.1" x2="758.26" y2="301.51"/></g></g><g><rect class="ca" x="529.92" y="243" width="63.97" height="44.1"/><g><path class="cq" d="M561.98,287.1c0,5.25-1.59,10.18-4.36,14.41"/><line class="ca" x1="530" y1="287.1" x2="557.62" y2="301.51"/></g><g><path class="cq" d="M561.95,287.1c0,5.25,1.59,10.18,4.36,14.41"/><line class="cf" x1="593.93" y1="287.1" x2="566.31" y2="301.51"/></g></g><g id="ap" data-name="bath_shelf1"><rect id="aq" data-name="bath_blat" class="ca" x="260.04" y="76.25" width="99.84" height="35.92"/><g id="ar" data-name="bath_zlew"><ellipse class="ca" cx="307.32" cy="94.7" rx="15.7" ry="14.2"/><ellipse class="ca" cx="307.32" cy="93.67" rx="10.59" ry="8.55"/><ellipse class="ca" cx="307.32" cy="93.25" rx="2.29" ry="2.02"/><rect class="ca" x="306.08" y="81.39" width="2.47" height="9.35" rx="1.13" ry="1.13"/></g><g id="as" data-name="bath_sh2"><g id="at" data-name="bath_sh2"><rect class="ca" x="260.04" y="76.25" width="99.84" height="18.15"/><rect class="ca" x="260.04" y="76.25" width="94.87" height="18.15"/><line class="ca" x1="312.75" y1="112.79" x2="354.91" y2="94.4"/><path class="cq" d="M307.47,94.4c0,6.15,1.8,12.86,5.28,18.39h0"/><line class="ca" x1="302.19" y1="112.79" x2="260.04" y2="94.4"/><path class="cq" d="M307.47,94.4c0,6.15-1.8,12.86-5.28,18.39h0"/></g></g></g><path class="cq" d="M744.95,163.08c-4.36-6.21-6.87-13.48-6.87-21.25"/><line class="ca" x1="786.54" y1="141.82" x2="744.95" y2="163.08"/><path class="cq" d="M689.24,141.7c0,7.03,2.42,13.62,6.65,19.28"/><line class="ca" x1="738.08" y1="141.7" x2="695.89" y2="160.98"/><path class="cq" d="M689.29,141.7c0,7.03-2.42,13.62-6.65,19.28"/><line class="cf" x1="640.45" y1="141.7" x2="682.63" y2="160.98"/><rect class="ca" x="145.1" y="359.92" width="193.08" height="67.82"/><g id="au" data-name="kitchen_plyta"><rect class="ca" x="212.06" y="361.61" width="59.16" height="40.66" rx="1.87" ry="1.87"/><ellipse class="ca" cx="228.44" cy="374.22" rx="5.79" ry="5.52"/><ellipse class="ca" cx="254.25" cy="374.22" rx="5.79" ry="5.52"/><ellipse class="ca" cx="240.95" cy="384.19" rx="5.79" ry="5.52"/><ellipse class="ca" cx="221.59" cy="391.42" rx="7.46" ry="7.1"/><ellipse class="ca" cx="260.64" cy="391.42" rx="7.46" ry="7.1"/><g><g><ellipse class="ca" cx="250.47" cy="364.83" rx="1.38" ry="1.31"/><ellipse class="ca" cx="250.47" cy="364.83" rx=".59" ry="1.18"/></g><g><ellipse class="ca" cx="246.1" cy="364.83" rx="1.38" ry="1.31"/><ellipse class="ca" cx="246.1" cy="364.83" rx=".59" ry="1.18"/></g><g><ellipse class="ca" cx="241.73" cy="364.83" rx="1.38" ry="1.31"/><ellipse class="ca" cx="241.73" cy="364.83" rx=".59" ry="1.18"/></g><g><ellipse class="ca" cx="237.37" cy="364.83" rx="1.38" ry="1.31"/><ellipse class="ca" cx="237.37" cy="364.83" rx=".59" ry="1.18"/></g><g><ellipse class="ca" cx="232.81" cy="364.83" rx="1.38" ry="1.31"/><ellipse class="ca" cx="232.81" cy="364.83" rx=".59" ry="1.18"/></g></g></g><g><rect class="ca" x="73.92" y="234.63" width="319.56" height="44.57"/><g id="av" data-name="kitchen_sh1"><rect class="ca" x="350.04" y="234.63" width="43.38" height="44.57"/><line class="ca" x1="354.87" y1="300.4" x2="393.42" y2="279.2"/><path class="cq" d="M350.04,279.2c0,7.08,1.65,14.82,4.83,21.2h0"/></g><g id="aw" data-name="kitchen_sh1"><rect class="ca" x="306.66" y="234.63" width="43.38" height="44.57"/><line class="ca" x1="311.49" y1="300.4" x2="350.04" y2="279.2"/><path class="cq" d="M306.66,279.2c0,7.08,1.65,14.82,4.83,21.2h0"/></g><g id="ax" data-name="kitchen_sh1"><rect class="ca" x="78.83" y="234.63" width="33.37" height="44.57"/><line class="ca" x1="108.48" y1="294.82" x2="78.83" y2="279.2"/><path class="cq" d="M112.2,279.2c0,5.22-1.27,10.92-3.71,15.62h0"/></g><g id="ay" data-name="kitchen_zlew"><rect class="ca" x="212.28" y="238.77" width="42.92" height="38.83" rx="1.1" ry="1.1"/><rect class="ca" x="215.74" y="245.62" width="35.99" height="28.85" rx="3.7" ry="3.7"/><circle class="ca" cx="233.74" cy="253.48" r="1.83"/><rect class="ca" x="232.83" y="240.3" width="1.82" height="10.4" rx=".91" ry=".91"/></g><g id="az" data-name="kitchen_sh2"><g id="ba" data-name="kitchen_sh2"><rect class="ca" x="258.05" y="234.63" width="48.62" height="27.79"/><line class="ca" x1="263.46" y1="277.57" x2="306.66" y2="262.42"/><path class="cq" d="M258.05,262.42c0,5.06,1.85,10.59,5.41,15.14h0"/></g></g><g id="bb" data-name="kitchen_sh2"><g id="bc" data-name="kitchen_sh2"><rect class="ca" x="209.43" y="234.63" width="48.62" height="27.79"/><line class="ca" x1="214.84" y1="277.57" x2="258.05" y2="262.42"/><path class="cq" d="M209.43,262.42c0,5.06,1.85,10.59,5.41,15.14h0"/></g></g><g id="bd" data-name="kitchen_sh2"><g id="be" data-name="kitchen_sh2"><rect class="ca" x="160.81" y="234.63" width="48.62" height="27.79"/><line class="ca" x1="204.02" y1="277.57" x2="160.81" y2="262.42"/><path class="cq" d="M209.43,262.42c0,5.06-1.85,10.59-5.41,15.14h0"/></g></g><g id="bf" data-name="kitchen_sh2"><g id="bg" data-name="kitchen_sh2"><rect class="ca" x="112.2" y="234.63" width="48.62" height="27.79"/><line class="ca" x1="155.4" y1="277.57" x2="112.2" y2="262.42"/><path class="cq" d="M160.81,262.42c0,5.06-1.85,10.59-5.41,15.14h0"/></g></g></g></g></g></g><g id="bh" data-name="WALLS"><g><rect class="ci" x="623.27" y="716.83" width="113.28" height="16"/><rect class="ci" x="785.99" y="456.49" width="16" height="191.64"/><rect class="ci" x="432.7" y="716.83" width="115.27" height="16"/><polygon class="ci" points="140.74 716.83 73.92 716.83 73.92 234.63 123.24 234.63 123.24 54.52 552.3 54.52 552.3 38.52 107.24 38.52 107.24 218.63 57.92 218.63 57.92 732.83 140.74 732.83 140.74 716.83"/><polygon class="ci" points="618.65 54.52 785.99 54.52 785.99 294.74 801.99 294.74 801.99 38.52 618.65 38.52 618.65 54.52"/><rect class="cj" x="57.92" y="732.83" width="82.83" height="9.93"/><rect class="cj" x="432.7" y="732.83" width="115.27" height="9.93"/><rect class="cj" x="623.27" y="732.83" width="113.28" height="9.93"/><rect class="cj" x="801.99" y="456.49" width="9.93" height="191.64"/><rect class="cj" x="801.99" y="38.52" width="9.93" height="256.22"/></g><g><rect class="ci" x="630.87" y="54.52" width="9.58" height="95.3"/><rect class="ci" x="630.87" y="208.44" width="9.58" height="26.19"/></g><g><rect class="ci" x="360.04" y="54.52" width="7.6" height="87.3"/><rect class="ci" x="514.28" y="54.52" width="7.6" height="43.13"/><rect class="ci" x="360.04" y="200.94" width="7.6" height="17.69"/></g><g><rect class="ci" x="514.28" y="218.63" width="15.63" height="79.91"/><rect class="ci" x="514.28" y="357.33" width="15.63" height="149.01"/></g><rect class="ci" x="123.24" y="218.63" width="293.94" height="16"/><rect class="ci" x="123.24" y="67.95" width="236.81" height="8.15"/><rect class="ci" x="640.45" y="87.33" width="145.54" height="8.15"/><rect class="ci" x="529.92" y="234.63" width="256.07" height="8.37"/><rect class="ci" x="529.92" y="497.53" width="256.07" height="8.81"/><polygon class="ci" points="401.49 234.63 401.49 271.28 409.09 271.28 409.09 234.63 417.18 234.63 417.18 279.2 393.57 279.2 393.57 234.63 401.49 234.63"/><polyline class="cn" points="130.57 742.76 130.57 870.59 441.03 870.59 441.03 742.76"/></g><g id="bi" data-name="TEXT"><g><g id="bj" data-name="MTEXT"><text class="cz" transform="translate(497.29 159.47)"><tspan x="0" y="0">8,2 m²</tspan></text></g><g id="bk" data-name="MTEXT"><text class="cz" transform="translate(487.63 139.73)"><tspan class="cw" x="0" y="0">F</tspan><tspan x="8.83" y="0">orstofa</tspan></text></g></g><g><g id="bl" data-name="MTEXT"><text class="cz" transform="translate(647.54 342.3)"><tspan x="0" y="0">11,6 m²</tspan></text></g><g id="bm" data-name="MTEXT"><text class="cz" transform="translate(619.5 322.55)"><tspan x="0" y="0">Svefnherbergi</tspan></text></g></g><g id="bn" data-name="MTEXT"><text class="cz" transform="translate(328.37 512.12)"><tspan x="0" y="0">Alrými</tspan></text></g><g><g id="bo" data-name="MTEXT"><text class="cz" transform="translate(221.73 163.47)"><tspan x="0" y="0">6,0 m²</tspan></text></g><g id="bp" data-name="MTEXT"><text class="cz" transform="translate(224.28 144.4)"><tspan x="0" y="0">Bað</tspan></text></g></g><g><g id="bq" data-name="MTEXT"><text class="cz" transform="translate(706.53 188.49)"><tspan x="0" y="0">3,6 m²</tspan></text></g><g id="br" data-name="MTEXT"><text class="cz" transform="translate(703.73 169.42)"><tspan x="0" y="0">Þvott</tspan></text></g></g><g><g id="bs" data-name="MTEXT"><text class="cz" transform="translate(270.3 831.24)"><tspan x="0" y="0">7,8 m²</tspan></text></g><g id="bt" data-name="MTEXT"><text class="cz" transform="translate(271.67 808.87)"><tspan x="0" y="0">Svalir</tspan></text></g></g></g><g id="bu" data-name="NORTH"><circle class="cx" cx="41.17" cy="63.86" r="22.52"/><path class="da" d="M55.11,46.12c-4.08-3.24-9.01-4.79-13.79-4.79-6.76,0-13.37,2.96-17.73,8.73-7.6,9.85-5.91,23.93,3.94,31.67,4.08,3.24,9.01,4.79,13.79,4.79s13.37-2.96,17.73-8.73c7.6-9.85,5.91-23.93-3.94-31.67ZM58.06,77.09c-4.08,5.21-10.27,8.16-16.89,8.16s-9.29-1.55-13.09-4.5c-4.5-3.52-7.32-8.59-8.02-14.21-.56-5.07.56-10.13,3.38-14.36l17.17,13.51,2.11-2.67-17.17-13.51c4.08-4.36,9.71-6.9,15.76-6.9,4.79,0,9.29,1.55,13.09,4.5,9.29,7.32,10.98,20.69,3.66,29.98Z"/><path class="da" d="M25.13,45.7l-1.41,1.69-8.3-1.13,5.77,4.5-1.41,1.69-9.15-7.18,1.41-1.69,8.44,1.13-5.77-4.5,1.41-1.69,9.15,7.18h-.14Z"/></g></g><g id="bx" data-name="TXT frames"><g id="by" data-name="05-04"><g><text class="db" transform="translate(372.61 394.78)"><tspan x="0" y="0">D1-0403</tspan></text><rect class="cc" x="366.41" y="375.62" width="73.32" height="25.76"/></g></g></g></svg>